<?xml version="1.0" standalone="no"?>
<!DOCTYPE svg PUBLIC "-//W3C//DTD SVG 20010904//EN"
 "http://www.w3.org/TR/2001/REC-SVG-20010904/DTD/svg10.dtd">
<svg version="1.0" xmlns="http://www.w3.org/2000/svg"
 width="100.000000pt" height="100.000000pt" viewBox="0 0 100.000000 100.000000"
 preserveAspectRatio="xMidYMid meet">
<metadata>
Created by potrace 1.14, written by Peter Selinger 2001-2017
</metadata>
<g transform="translate(0.000000,100.000000) scale(0.100000,-0.100000)"
fill="#000000" stroke="none">
<path d="M378 862 c-67 -71 -74 -142 -15 -142 16 0 10 -8 -26 -40 -63 -56 -99
-132 -105 -224 -6 -95 9 -139 56 -168 32 -19 53 -23 164 -26 224 -7 289 14
304 96 3 20 15 56 26 80 20 41 20 45 3 88 -9 24 -25 50 -36 57 -10 8 -33 33
-50 56 -17 24 -43 50 -58 59 -25 14 -28 21 -24 51 6 46 -9 86 -41 106 -23 15
-30 15 -86 1 -81 -21 -80 -21 -69 16 5 17 7 33 5 35 -1 2 -23 -19 -48 -45z
m217 -62 c7 -21 6 -22 -7 -10 -8 8 -17 26 -21 39 -5 21 -4 22 7 10 8 -8 17
-25 21 -39z m-219 31 c-3 -4 -10 -21 -16 -36 -6 -15 -13 -25 -16 -22 -6 6 23
67 32 67 3 0 3 -4 0 -9z m149 -12 c0 -7 -8 -15 -17 -17 -18 -3 -25 18 -11 32
10 10 28 1 28 -15z m-122 -127 c-8 -5 -12 -26 -11 -54 2 -34 -3 -52 -16 -67
-24 -27 -46 -27 -53 0 -6 21 -6 21 -25 -2 -14 -18 -13 -11 6 27 25 50 76 104
99 104 9 0 9 -3 0 -8z m73 -23 c9 -15 -11 -33 -30 -26 -9 4 -13 13 -10 22 7
17 30 20 40 4z m248 -89 c29 -11 56 -57 56 -95 0 -33 -42 -75 -75 -75 -38 0
-72 27 -85 66 -14 42 -7 67 27 94 29 23 41 24 77 10z m-209 -14 c90 -38 79
-139 -19 -176 -60 -22 -116 16 -116 80 0 36 30 81 63 95 40 18 32 17 72 1z
m-234 -189 c2 -1 13 -7 24 -13 11 -7 19 -19 17 -28 -2 -10 7 -18 25 -22 44 -9
50 -12 25 -13 -66 -2 -114 50 -111 123 1 30 2 30 9 -7 4 -20 9 -38 11 -40z
m428 -43 c-12 -13 -27 -24 -33 -24 -6 0 1 10 17 21 15 11 28 30 28 42 1 19 2
19 6 4 3 -11 -5 -29 -18 -43z m-71 -31 c-15 -2 -42 -2 -60 0 -18 2 -6 4 27 4
33 0 48 -2 33 -4z"/>
<path d="M734 515 c3 -10 1 -24 -5 -31 -9 -11 -7 -15 6 -20 10 -4 21 -1 26 7
14 22 6 53 -15 57 -14 3 -17 0 -12 -13z"/>
<path d="M523 497 c3 -8 0 -20 -6 -26 -18 -18 8 -38 28 -21 21 17 15 54 -9 58
-13 3 -17 0 -13 -11z"/>
</g>
</svg>
